Coordinates
version=1
nRows=16
nColumns=30
inDegrees=yes

Units are S.I. units (second, meters, Newtons, ...)
Angles are in degrees.

endheader
time	floatyaw	floatroll	floatpitch	floatx	floaty	floatz	pro_sup_l	deviation_l	flexion_l	cmc_flexion_l	cmc_abduction_l	mp_flexion_l	ip_flexion_l	2mcp_flexion_l	2mcp_abduction_l	2pm_flexion_l	2md_flexion_l	3mcp_flexion_l	3mcp_abduction_l	3pm_flexion_l	3md_flexion_l	4mcp_flexion_l	4mcp_abduction_l	4pm_flexion_l	4md_flexion_l	5mcp_flexion_l	5mcp_abduction_l	5pm_flexion_l	5md_flexion_l
-0.495000	-0.845308	-4.283240	94.249796	0.009308	-0.253562	0.021789	87.167822	1.772756	-0.520778	14.862521	11.925557	-16.340235	-22.716440	29.096743	6.198206	26.405590	18.759878	17.352793	5.128021	31.693413	22.595105	4.795475	-3.775017	51.510651	34.088610	-6.542114	-8.286425	54.919699	44.212808
-0.485000	-0.845308	-4.283240	94.249796	0.012033	-0.251475	0.025522	86.786486	2.398059	-0.332135	13.196438	13.205461	-16.107046	-21.648501	30.654779	6.386810	25.492023	18.277750	18.957806	5.372667	30.848286	22.593522	6.279241	-3.852984	50.986725	34.189406	-4.646240	-8.187278	54.258624	43.838150
-0.475000	-0.845308	-4.283240	94.249796	0.015115	-0.249295	0.029462	86.348729	3.088627	-0.101416	11.471631	14.521772	-15.852816	-20.556061	32.297282	6.583192	24.592341	17.751858	20.644987	5.628406	29.997149	22.654830	7.876705	-3.926930	50.414558	34.467635	-2.568129	-8.164323	53.558293	43.588230
-0.465000	-0.845308	-4.283240	94.249796	0.018570	-0.247085	0.033553	85.886072	3.854930	0.154151	9.759346	15.825594	-15.583149	-19.492349	33.947224	6.782049	23.785404	17.247741	22.349315	5.876037	29.240528	22.788430	9.501210	-4.007547	49.868440	34.947486	-0.308200	-8.167769	52.820147	43.525814
-0.455000	-0.845308	-4.283240	94.249796	0.022369	-0.244900	0.037788	85.459560	4.700764	0.417636	8.110265	17.074129	-15.303105	-18.488679	35.534565	6.985439	23.114278	16.812436	24.036324	6.099871	28.618933	22.965653	11.096694	-4.103289	49.376476	35.607444	2.055072	-8.132601	52.090736	43.705931
-0.445000	-0.845308	-4.283240	94.249796	0.026460	-0.242789	0.042195	85.148001	5.623920	0.674563	6.553321	18.245554	-15.018401	-17.557235	37.017763	7.201134	22.581105	16.461117	25.700578	6.291597	28.113067	23.141420	12.633091	-4.215701	48.934106	36.408604	4.379078	-8.012866	51.479140	44.167617
-0.435000	-0.845308	-4.283240	94.249796	0.030790	-0.240799	0.046815	85.025331	6.618587	0.918095	5.105176	19.343480	-14.737688	-16.705108	38.390503	7.436030	22.161601	16.181084	27.350547	6.451088	27.669392	23.284206	14.087190	-4.336558	48.539204	37.327936	6.503461	-7.808437	51.133079	44.924071
-0.425000	-0.845308	-4.283240	94.249796	0.035328	-0.238962	0.051674	85.137824	7.676028	1.155017	3.777627	20.389737	-14.472004	-15.942952	39.675966	7.689186	21.822912	15.945390	28.991601	6.583796	27.230907	23.395769	15.423786	-4.448157	48.223863	38.375344	8.304733	-7.568536	51.184225	45.950063
-0.415000	-0.845308	-4.283240	94.249796	0.040071	-0.237296	0.056771	85.492130	8.782551	1.406392	2.577164	21.412236	-14.230758	-15.281719	40.913242	7.949688	21.534661	15.727328	30.614959	6.696346	26.760771	23.511278	16.590083	-4.527918	48.063127	39.584733	9.731860	-7.370654	51.697601	47.173883
-0.405000	-0.845308	-4.283240	94.249796	0.045035	-0.235811	0.062082	86.058557	9.916632	1.700412	1.501043	22.435153	-14.017226	-14.723934	42.137844	8.201431	21.274692	15.511475	32.193913	6.793215	26.255506	23.682773	17.528166	-4.556896	48.153961	40.983708	10.808514	-7.287576	52.653342	48.483353
-0.395000	-0.845308	-4.283240	94.249796	0.050224	-0.234522	0.067560	86.786145	11.048441	2.062190	0.537234	23.473070	-13.826803	-14.258999	43.359996	8.432182	21.033975	15.299499	33.686129	6.876603	25.746389	23.956141	18.200481	-4.529063	48.572167	42.557564	11.607285	-7.359316	53.962927	49.749395
-0.385000	-0.845308	-4.283240	94.249796	0.055624	-0.233450	0.073137	87.621553	12.143832	2.507797	-0.329798	24.527245	-13.648604	-13.865749	44.550654	8.641252	20.819714	15.109091	35.042144	6.948998	25.286992	24.352086	18.615041	-4.456737	49.327332	44.228214	12.214621	-7.581413	55.501800	50.860775
-0.375000	-0.845308	-4.283240	94.249796	0.061197	-0.232618	0.078739	88.523624	13.171787	3.044944	-1.111981	25.584488	-13.468836	-13.519224	45.646417	8.840796	20.652599	14.966219	36.219943	7.015811	24.929539	24.857833	18.834501	-4.368739	50.341345	45.864278	12.705132	-7.911915	57.140295	51.755844
-0.365000	-0.845308	-4.283240	94.249796	0.066891	-0.232039	0.084291	89.469021	14.111392	3.676267	-1.814421	26.622227	-13.274255	-13.197578	46.574318	9.049849	20.558250	14.894826	37.200760	7.085562	24.701372	25.432135	18.959804	-4.301487	51.467473	47.323023	13.132808	-8.291560	58.766911	52.436252
-0.355000	-0.845308	-4.283240	94.249796	0.072657	-0.231725	0.089737	90.449201	14.954409	4.400417	-2.436985	27.620605	-13.055208	-12.887190	47.283168	9.284734	20.557778	14.909704	37.996553	7.167125	24.595555	26.022246	19.093385	-4.286699	52.544079	48.505305	13.534371	-8.667368	60.304687	52.955973
-0.345000	-0.845308	-4.283240	94.249796	0.078449	-0.231685	0.095052	91.462762	15.702789	5.210935	-2.977850	28.575117	-12.808361	-12.585294	47.762971	9.551275	20.661653	15.015082	38.642336	7.265709	24.580988	26.586716	19.300510	-4.340842	53.454156	49.394343	13.934797	-9.009602	61.718163	53.391928
